<svg xmlns="http://www.w3.org/2000/svg" viewBox="0 0 512 512">
  <rect width="512" height="512" rx="80" fill="#8F482F"/>
  <g transform="translate(100, 80)">
    <path d="M0 0h60v352H0z" fill="#FAF9F5" rx="4"/>
    <path d="M60 0h60v352H60z" fill="#F0EDE6" rx="4"/>
    <path d="M120 0h60v352H120z" fill="#FAF9F5" rx="4"/>
    <path d="M180 0h60v352H180z" fill="#F0EDE6" rx="4"/>
    <path d="M240 0h60v352H240z" fill="#FAF9F5" rx="4"/>
    <rect x="-4" y="-4" width="268" height="360" rx="8" fill="none" stroke="#FAF9F5" stroke-width="6"/>
    <line x1="20" y1="60" x2="230" y2="60" stroke="#8F482F" stroke-width="4" opacity="0.3"/>
    <line x1="20" y1="90" x2="230" y2="90" stroke="#8F482F" stroke-width="4" opacity="0.3"/>
    <line x1="20" y1="120" x2="180" y2="120" stroke="#8F482F" stroke-width="4" opacity="0.3"/>
    <line x1="20" y1="150" x2="210" y2="150" stroke="#8F482F" stroke-width="4" opacity="0.3"/>
    <line x1="20" y1="180" x2="160" y2="180" stroke="#8F482F" stroke-width="4" opacity="0.3"/>
  </g>
</svg>
